# xmcd
# 
# Track frame offsets:
#     180
#     41335
#     56578
#     81155
#     112689
#     129747
#     152620
#     178329
#     198471
#     220236
#     238623
#     263192
#     289840
# 
# Disc length: 4149
# 
# Revision: 0
# Processed by: cddbd v1.5.2PL0 Copyright (c) Steve Scherf et al.
# Submitted via: fre:ac v1.0.17
# 
DISCID=b810330d
DTITLE=Various Artist - Special Blues collection
DYEAR=1998
DGENRE=Blues
TTITLE0=Gary B.B. Coleman - The sky Is Crying
TTITLE1=Luther "Houserocker" Johnson - Trouble Blues
TTITLE2=Jerry McCain - I've Got the Blues All Over Me
TTITLE3=Gary B.B. Coleman - Blues At Sunrise
TTITLE4=Luther "houserocker" Johnson - I'm Mr. Luck
TTITLE5=Jerry McCain - Spoiled Rotten to the Bone
TTITLE6=Gary B.B. Coleman - I Fell in Love on a One Night Stand
TTITLE7=Luther "Houserocker" Johnson - Little Car Blues
TTITLE8=Gary B.B. Coleman - St. James Infirmary
TTITLE9=Gary B.B. Coleman - I just Can't Lose These Blues
TTITLE10=Luther "Houserocker" Johnson - Cryin' And Thinkin'
TTITLE11=Gary B.B. Coleman Feat. Jerry McCain - Welfare Cadillac
TTITLE12=Jerry McCain - Strut Your Stuff
EXTD=
EXTT0=
EXTT1=
EXTT2=
EXTT3=
EXTT4=
EXTT5=
EXTT6=
EXTT7=
EXTT8=
EXTT9=
EXTT10=
EXTT11=
EXTT12=
PLAYORDER=
